/* XPM */
static char *dummy[]={
"16 16 123 2",
"Qt c None",
".# c #000000",
".L c #030302",
".D c #050403",
"#m c #050503",
".S c #070604",
"#U c #070605",
"#M c #080705",
"#V c #090806",
".1 c #0a0907",
".m c #0c0b09",
".r c #0d0b09",
"#Y c #0d0c09",
".i c #0d0d0a",
".q c #0d0d0d",
".T c #110f0b",
".M c #1e1b14",
"#E c #1f1c15",
"#T c #201d15",
"#Z c #201d16",
".I c #28241b",
".C c #2a251c",
".A c #2a261c",
"#J c #2e291f",
"#O c #2f2a1f",
".E c #2f2a20",
".4 c #332e22",
"#H c #36362c",
".G c #363632",
".a c #39392d",
".h c #393935",
"#C c #3a352a",
".P c #3a362e",
".l c #3c372b",
".n c #3c3930",
"#u c #494232",
"#I c #4a4232",
"#R c #4a4332",
".x c #4c4433",
"#F c #4d4534",
"#S c #4e4535",
".X c #4f4736",
"#P c #524937",
"#v c #524a38",
"#l c #554c39",
"#N c #554c3a",
".t c #574d3a",
"#0 c #574e3a",
"#B c #584f3c",
"#K c #5a503d",
"#c c #5b513d",
".H c #5c523e",
".y c #5c5649",
".u c #5d574a",
"#1 c #5f5440",
".3 c #5f5540",
"#j c #605641",
".R c #625742",
"#4 c #635843",
"#2 c #645a44",
"#3 c #695d47",
".B c #6f634b",
".w c #71654c",
"#W c #786b51",
"#X c #7a6d52",
"#y c #7b6e53",
"#z c #7b6e54",
"#w c #7b7055",
"#A c #7b7156",
"#x c #7d7055",
".j c #8e7f60",
".K c #8e8061",
"#L c #908465",
"#D c #90856a",
".Q c #908874",
".z c #908a79",
".b c #918669",
".g c #918a74",
".p c #938d79",
".8 c #948565",
"#n c #958665",
"#s c #9a8a68",
"#G c #9a8b6c",
".F c #9a907c",
".o c #9c967d",
"#Q c #9d8c6a",
".k c #9d906f",
".7 c #a3926e",
".W c #a3926f",
".c c #a59879",
".f c #a59a81",
"#t c #a6987b",
".2 c #a69a82",
"#k c #ac9f83",
".d c #ada082",
"#b c #ada087",
".e c #ada185",
"#e c #ae9c76",
".N c #b3a37c",
".J c #c2ae83",
".O c #c4b085",
"#f c #c6b287",
".s c #d2c3a3",
".Y c #e0cb9a",
".0 c #e5cd9b",
".U c #e6ce9c",
".v c #e7e0cc",
"#o c #f5dca7",
"#d c #f8e5ae",
".6 c #fae4ad",
"#a c #fbe2ab",
".9 c #fbe3ac",
".5 c #fce3ac",
"## c #ffe3ac",
"#h c #ffe5ad",
"#. c #ffe8b0",
"#g c #ffeab2",
"#i c #ffebb2",
"#q c #ffecb3",
".Z c #ffeeb4",
".V c #ffefb5",
"#p c #fff1b7",
"#r c #fff5b9",
"Qt.#.#.#.a.b.c.d.e.f.g.h.#.#.#.#",
".#.#.i.j.k.l.m.#.#.m.n.o.p.q.#.#",
".#.r.s.t.#.#.#.#.#.#.#.#.u.v.q.#",
".#.w.x.#.#.#.#.#.#.#.#.#.#.y.z.#",
".A.B.#.#.C.#.#.#.#.#.D.E.#.#.F.G",
".H.I.#.#.J.K.L.#.#.M.N.O.#.#.P.Q",
".R.S.#.T.U.V.W.D.X.Y.Z.0.T.#.1.2",
".3.#.#.4.5.6.7.8.9#.###a.4.#.##b",
"#c.#.#.R#d#e#f#g#h#####i#j.#.##k",
"#l#m.##n.U#o#p#q#q#q#q#r#s.#.1#t",
"#u.M.##v#w#x#y#z#z#z#z#A#B.##C#D",
"#E#F.#.#.#.#.#.#.#.#.#.#.#.##G#H",
".##I#J.#.#.#.#.#.#.#.#.#.##K#L.#",
".##M#N#O.#.#.#.#.#.#.#.##P#Q.i.#",
".#.##M#R#S#T#U.#.##V#J#W#X#Y.#.#",
".#.#.#.##Z#I#0#1#2#3#4#J.#.#.#.#"};
