/* XPM */
static char *dummy[]={
"32 32 315 2",
"Qt c None",
"b3 c #7d7054",
"#d c #b5a37a",
"b9 c #fcdea8",
"#k c #ffeed2",
"cu c #7b6e53",
"cE c #bca77f",
".B c #e7cf9c",
".O c #ffeacd",
"bF c #7e7155",
"#H c #8e7f5f",
"bN c #ffe8b9",
"#U c #fff0d0",
"cT c #7f7256",
"c4 c #9d8c6a",
".# c #ffe9b5",
".k c #fff1cf",
"ce c #efd3a0",
"c. c #7d7054",
".7 c #c4af85",
"#c c #ffefd2",
"cm c #7d7054",
"ct c #d1bb8d",
".P c #ddc595",
".Y c #ffeed0",
"bT c #7e7155",
"#r c #a69470",
"bX c #ffe6b3",
"#w c #fff1d2",
"cS c #b4a079",
"cF c #7f7255",
".l c #ffe5ae",
".A c #fff0d0",
"cf c #7d7054",
".Z c #d1ba8d",
"cl c #e0c797",
".6 c #ffeed1",
"bs c #817357",
"#V c #908161",
"bE c #ffeebf",
"#7 c #fff4d2",
"cU c #827558",
"c3 c #a08f6c",
".a c #fff0bd",
".j c #fff7d3",
"bY c #807356",
"cv c #827558",
"cD c #c9b488",
".C c #fce2ab",
"b2 c #fee8b1",
"#q c #fff4d5",
".N c #fff7d6",
"#l c #b8a47c",
"cV c #847659",
"c2 c #9e8d6a",
"bi c #837558",
"cG c #847659",
"#8 c #8f8061",
"cR c #b9a57c",
".m c #ffefb8",
"br c #fff2c4",
".b c #fff3c2",
"ak c #fff7d3",
".i c #fff8d2",
".z c #fff9d6",
"bO c #827457",
"#x c #a79571",
"bS c #ffedba",
"#G c #fff6d5",
"cW c #86785b",
"c1 c #9a8a68",
".c c #fff5c5",
".h c #fff9d1",
"ba c #857759",
"al c #8e7f60",
"bh c #fff5c8",
"aw c #fff9d3",
"cn c #857759",
"cs c #dcc595",
".Q c #f5dba6",
".X c #fffbda",
"b4 c #837558",
"b8 c #fee7af",
"#j c #fff8d8",
"#e c #cab589",
"cg c #85775a",
".0 c #ebd19e",
"ck c #ecd3a0",
".5 c #fffcdc",
"c# c #85775a",
".8 c #dcc595",
"cd c #f8dfa9",
"#b c #fffbdb",
"a2 c #86785a",
"ax c #8c7d5f",
"c0 c #948564",
"cX c #887a5c",
".d c #fff4c6",
"b# c #fff5ca",
".g c #fff7cd",
"aF c #fff7d0",
"cH c #86785a",
"cQ c #b8a57c",
".n c #fff3bd",
".y c #fffbd6",
"bG c #847659",
"#I c #a99772",
"bM c #fff1bf",
"#T c #fff9d5",
"cw c #86785a",
"cC c #cdb78a",
".D c #fff0b6",
".M c #fffcd9",
"bU c #85775a",
"#s c #bea980",
"bW c #fff1ba",
"#v c #fffbd9",
"aR c #87795b",
"aG c #897b5d",
"cY c #8b7c5e",
"cZ c #8f7f60",
".e c #fff3c7",
".f c #fff4ca",
"a1 c #fff4cb",
"aQ c #fff5cc",
".I c #000000",
"#N c #010100",
"bk c #020201",
"a. c #030302",
".H c #040403",
"#C c #070604",
"#2 c #090806",
"bH c #0a0907",
"cp c #0b0a07",
"#z c #0e0c09",
"b5 c #0e0d09",
"cb c #0e0d0a",
"bQ c #100f0c",
"#E c #100f0d",
"bJ c #110f0b",
"bK c #11100c",
"bI c #12110d",
".T c #14110d",
".U c #14120f",
"ae c #15120e",
"ad c #15130e",
"bu c #181510",
"#g c #191611",
"#. c #1a1811",
"b6 c #1b1812",
"an c #1c1913",
"#h c #1c1915",
"## c #1c1a15",
"as c #1d1a14",
"ch c #1e1b14",
"#X c #201d16",
"cz c #252119",
"#O c #29251b",
"aN c #2a251c",
"bC c #2c2820",
"#5 c #2c2922",
".G c #2e2a21",
".J c #2e2b24",
"#n c #2f2a20",
"ci c #342f23",
"b0 c #383226",
"#o c #38342c",
".2 c #393326",
".3 c #3a362d",
"#A c #3f392b",
"aS c #423a2c",
"at c #423c2d",
"az c #433c2d",
"aH c #443d2e",
"co c #453d2e",
"bp c #463f2f",
"cy c #473f2f",
"bl c #474030",
"cM c #494131",
"a3 c #4a4231",
"cL c #4f4635",
"ay c #524937",
"cN c #584f3b",
"aX c #5a513d",
"bb c #5b523e",
"cK c #5f5540",
"#J c #605540",
"#3 c #605741",
"bv c #635a44",
"bB c #665c45",
"cA c #675c45",
"#t c #685d46",
"ca c #6a5f48",
"am c #6b6048",
"#B c #6f634b",
".s c #6f6753",
".t c #6f6754",
"aP c #6f6755",
"cq c #70644b",
"bj c #72664d",
"aI c #73674e",
"#R c #74684f",
"cJ c #75684e",
"#K c #766950",
"bP c #776b50",
"cx c #786b51",
"a6 c #7d7055",
"aW c #7e7156",
"aB c #7e7256",
"bZ c #827458",
"bt c #837558",
"b. c #837963",
"aE c #837965",
"cI c #847659",
"#M c #84775a",
".S c #84775b",
"#D c #84785b",
".F c #84785e",
"bL c #84785f",
".r c #847961",
".u c #847a64",
".K c #847c68",
".V c #847c6a",
"bV c #85775c",
"#S c #857b68",
"#u c #857b69",
"#9 c #8b7c5e",
"aM c #918363",
"cO c #958564",
"be c #958565",
"a7 c #968867",
"#1 c #9e8e6c",
"af c #9f906d",
"#W c #a4936f",
"a0 c #a49370",
"#Y c #a59370",
"aT c #a59470",
"#y c #a99772",
".q c #aa9c7d",
"bg c #aa9c7e",
"av c #aa9d84",
".v c #aa9e83",
"cP c #b09d77",
"aA c #b1a079",
"cB c #b4a17a",
"ac c #b6a47c",
"aO c #b7a67e",
".9 c #bba77e",
"#P c #bdac82",
"#f c #beaa80",
"bn c #c3ae84",
"cc c #c6b186",
"cj c #c9b388",
"#m c #c9b488",
"bf c #ccb88c",
"#a c #cfc5aa",
"a4 c #d0ba8d",
"a# c #d0bb8d",
"ar c #d2be90",
".1 c #d3bd8f",
"cr c #d6c091",
"au c #d6c293",
"bw c #d7c494",
".p c #dac79f",
".w c #dacbaa",
"bq c #dbc8a1",
"aj c #dbcbac",
"b7 c #ddc797",
".4 c #ddd4b6",
"#i c #dfd4b7",
"bx c #e5ce9c",
"bz c #e6ce9c",
"aY c #e6d19e",
"bA c #e6d6a2",
"by c #e8d09e",
".E c #e8d4a3",
".L c #e8dcbb",
"bd c #e9d5a1",
"#4 c #ead5a1",
"bR c #ead6a7",
"#F c #eaddbd",
"ao c #f1d7a3",
"a5 c #f1dba6",
"bm c #f3daa5",
"bo c #f3dba6",
"bc c #f4dba6",
"aC c #f8e1ab",
".R c #f9e0aa",
"aV c #fbe5ad",
"b1 c #fce9b2",
".W c #fcf3d1",
"#p c #fcf3d2",
"a8 c #fee7af",
"ai c #ffe3ac",
"aq c #ffe3ad",
"ab c #ffe4ad",
"aK c #ffe5ae",
"ap c #ffe6ae",
"aU c #ffe6af",
"ah c #ffe7af",
"a9 c #ffe8b0",
"aa c #ffe9b0",
"ag c #ffe9b1",
"aD c #ffeab1",
".o c #ffeab9",
"aL c #ffebb2",
"aZ c #ffecb2",
"#0 c #ffecb3",
"bD c #ffecbd",
"aJ c #ffedb3",
"#Z c #ffedb4",
".x c #fff0cb",
"#6 c #fff1cd",
"#L c #fff2b8",
"#Q c #fff6bb",
"QtQtQtQtQtQtQtQtQtQt.#.a.b.c.d.e.f.g.h.i.j.kQtQtQtQtQtQtQtQtQtQt",
"QtQtQtQtQtQtQtQt.l.m.n.o.p.q.r.s.t.u.v.w.x.y.z.AQtQtQtQtQtQtQtQt",
"QtQtQtQtQtQt.B.C.D.E.F.G.H.I.I.I.I.I.I.H.J.K.L.M.N.OQtQtQtQtQtQt",
"QtQtQtQtQt.P.Q.R.S.T.I.I.I.I.I.I.I.I.I.I.I.I.U.V.W.X.YQtQtQtQtQt",
"QtQtQtQt.Z.0.1.2.I.I.I.I.I.I.I.I.I.I.I.I.I.I.I.I.3.4.5.6QtQtQtQt",
"QtQtQt.7.8.9#..I.I.I.I.I.I.I.I.I.I.I.I.I.I.I.I.I.I###a#b#cQtQtQt",
"QtQt#d#e#f#g.I.I.I.I.I.I.I.I.I.I.I.I.I.I.I.I.I.I.I.I#h#i#j#kQtQt",
"QtQt#l#m#n.I.I.I.I.I.I.I.I.I.I.I.I.I.I.I.I.I.I.I.I.I.I#o#p#qQtQt",
"Qt#r#s#t.I.I.I.I.I.I.I.I.I.I.I.I.I.I.I.I.I.I.I.I.I.I.I.I#u#v#wQt",
"Qt#x#y#z.I.I.I.I#A#B.I.I.I.I.I.I.I.I.I.I.I#C#D#A.I.I.I.I#E#F#GQt",
"#H#I#J.I.I.I.I.I#K#L#M#N.I.I.I.I.I.I.I.I#O#P#Q#R.I.I.I.I.I#S#T#U",
"#V#W#X.I.I.I.I.I#Y#Z#0#1#2.I.I.I.I.I.I#3#4#0#0#Y.I.I.I.I.I#5#6#7",
"#8#9a..I.I.I.Ia.a#aaab#Zacad.I.I.Iaeafagahaiaaa#a..I.I.I.Ia.ajak",
"alam.I.I.I.I.Ianaoapaiaq#Zaras.Iatau#Zabaiabapaoan.I.I.I.I.Iavaw",
"axay.I.I.I.I.Iazahabaiab#ZaA#gaBaCaDaiaiabababahaz.I.I.I.I.IaEaF",
"aGaH.I.I.I.I.IaIaJaiaKaLaMaNaOaJapaiababababaiaJaI.I.I.I.I.IaPaQ",
"aRaS.I.I.I.I.IaTaLaUaVaWaXaY#0abaiabababababaiaZa0.I.I.I.I.IaPa1",
"a2a3.I.I.I.Ia.a4aJa5a6a7a8a9aiababababababababaaa#a..I.I.I.Ib.b#",
"babb.I.I.I.Ianbcbdbebf#0abaiabababababababababapaoan.I.I.I.Ibgbh",
"bibjbk.I.I.Iblbmbnbo#Zahahahahahahahahahahahaha9aLbp.I.I.Ia.bqbr",
"bsbtbu.I.I.IbvbwbxbybzbzbzbzbzbzbzbzbzbzbzbzbzbzbAbB.I.I.IbCbDbE",
"bFbGaH.I.I.IbHbIbJbJbJbJbJbJbJbJbJbJbJbJbJbJbJbJbKbH.I.I.IbLbMbN",
"QtbObP#2.I.I.I.I.I.I.I.I.I.I.I.I.I.I.I.I.I.I.I.I.I.I.I.IbQbRbSQt",
"QtbTbUaz.I.I.I.I.I.I.I.I.I.I.I.I.I.I.I.I.I.I.I.I.I.I.I.IbVbWbXQt",
"QtQtbYbZan.I.I.I.I.I.I.I.I.I.I.I.I.I.I.I.I.I.I.I.I.I.Ib0b1b2QtQt",
"QtQtb3b4bjb5.I.I.I.I.I.I.I.I.I.I.I.I.I.I.I.I.I.I.I.Ib6b7b8b9QtQt",
"QtQtQtc.c#cacb.I.I.I.I.I.I.I.I.I.I.I.I.I.I.I.I.I.Ib6cccdceQtQtQt",
"QtQtQtQtcfcgbjch.I.I.I.I.I.I.I.I.I.I.I.I.I.I.I.IcicjckclQtQtQtQt",
"QtQtQtQtQtcmcnbZcocp.I.I.I.I.I.I.I.I.I.I.I.IbJcqcrcsctQtQtQtQtQt",
"QtQtQtQtQtQtcucvcwcxcyb6a..I.I.I.I.I.I.HczcAcBcCcDcEQtQtQtQtQtQt",
"QtQtQtQtQtQtQtQtcFcGcHcIcJcKcLbpcMcNbjcOcPcQcRcSQtQtQtQtQtQtQtQt",
"QtQtQtQtQtQtQtQtQtQtcTcUcVcWcXcYcZc0c1c2c3c4QtQtQtQtQtQtQtQtQtQt"};
