/* XPM */
static char *dummy[]={
"48 48 619 2",
"Qt c None",
"fq c None",
"aO c None",
"a2 c None",
"gg c #726249",
"gr c #c3ae86",
"#N c #cdb78d",
"#Y c #ffd7c8",
"fb c #ffe2b4",
"e1 c #7a6e52",
"bS c #ffe9c9",
"hz c #7f7055",
"by c #86785a",
"hO c #958667",
".# c #ffe6b3",
".o c #ffedcb",
"fO c #7b6e53",
"g0 c #c4ae85",
"fV c #fce0a9",
"ax c #ffebcf",
"gM c #7d7053",
"ao c #b29e77",
"#n c #ffefd0",
".7 c #f2d8a3",
"fy c #7e7154",
"fF c #ffe5b1",
"aG c #a79570",
"aN c #fff0d1",
"hg c #b6a27a",
"fp c #ffe4b3",
"bf c #ffedce",
".6 c #ffefd0",
"g1 c #7e7154",
".J c #fde3ac",
"fi c #7d6f53",
"hh c #7e7155",
"a3 c #9a8968",
"hy c #a99772",
".p c #ffe4b1",
".I c #fff0ce",
"hA c #7e7054",
"hN c #958564",
"e0 c #ffe6b9",
"cc c #ffeccb",
".a c #ffe5b5",
".n c #ffedc9",
"eO c #7d7053",
"bT c #87795a",
"gL c #ceb88a",
"f2 c #f8dda7",
"gA c #7e7154",
"an c #ffefd2",
"fW c #7d7054",
"#o c #ead09d",
"#B c #fff1d1",
"ah c #bea980",
"g. c #f1d5a2",
"ag c #fff0d3",
"f3 c #7d7054",
"gs c #7e7155",
"#9 c #c5b086",
"gz c #d6bf90",
"#C c #e1c998",
"#M c #fff0d2",
"hM c #908161",
"eN c #ffe8bb",
"hB c #7c7054",
"eA c #7d7054",
"cw c #ffedcb",
"cd c #837558",
".m c #ffecc8",
".b c #ffe7b9",
"g# c #7e7155",
"gq c #e0c897",
"gf c #e8d09c",
"#X c #fff1d3",
"#Z c #d0ba8c",
"#8 c #fff1d3",
"gh c #7f7254",
"#O c #d9c292",
"fh c #ffe6b6",
"bx c #ffeecd",
"hi c #7e7154",
"hx c #a6946f",
"fc c #7d7054",
"bg c #978665",
".q c #ffe6b2",
".H c #ffeecc",
"gN c #7f7255",
"gZ c #c2ad83",
"fN c #fee6af",
"aF c #fff1d2",
"fG c #7e7155",
"ay c #b29f78",
".8 c #fbdfa9",
"#m c #fff3d2",
"fr c #7d7054",
"hL c #8f805f",
"hf c #b4a079",
"fx c #ffe5b3",
"ez c #ffedc0",
".5 c #fff0d0",
"hC c #7e7155",
"g2 c #7f7155",
"en c #7f7254",
"cM c #fff0ce",
"cx c #827457",
"aP c #a3916e",
"a1 c #ffefd0",
".l c #fff0ca",
".K c #ffe6af",
".c c #ffebbd",
"fa c #ffebbc",
"hw c #a5926f",
"bR c #fff2d1",
"hj c #807356",
"e2 c #807255",
"bz c #968665",
".G c #fff2ce",
"gK c #cdb78a",
".r c #ffeab8",
"fU c #fce4ac",
"hD c #7e7156",
"hK c #8c7c5e",
"em c #ffedc2",
"cX c #fff0cd",
"ed c #7f7155",
"gB c #807356",
"cN c #817356",
".d c #ffecbe",
".k c #fff0ca",
"aw c #fff2d3",
"#A c #fff4d3",
"fP c #7f7255",
"#p c #f3d9a4",
"ap c #bda87f",
"d0 c #7e7155",
"cY c #817357",
"hJ c #87785b",
"ec c #ffedc4",
"hE c #7f7155",
".j c #ffefc7",
"db c #ffefca",
"g3 c #827458",
"he c #b6a27a",
".e c #ffecbf",
"fj c #827357",
"a4 c #a79570",
".L c #ffedb6",
"fo c #ffedba",
"be c #fff5d4",
".4 c #fff7d4",
"f1 c #fae1aa",
"am c #fff5d6",
"fX c #817356",
"ai c #c8b287",
"gy c #d6bf90",
"gt c #807256",
"#D c #ebd29f",
"hk c #807256",
"hv c #a3916d",
"eZ c #ffedbd",
"cb c #fff3cf",
"#L c #fff4d4",
"gO c #807356",
"gY c #c1ac83",
"#l c #fff4d3",
"eP c #807255",
"bU c #958564",
".9 c #fee7af",
"fE c #ffe7b3",
".s c #ffeaba",
".F c #fff2cd",
"aM c #fff2d3",
"fz c #807356",
"aH c #b19d77",
"dM c #7e7155",
"hI c #847659",
"dZ c #ffeec4",
"hF c #7f7356",
"dc c #807357",
"ge c #ecd39f",
".f c #ffecc0",
".i c #ffefc5",
"dl c #ffefc8",
"ga c #827557",
"#7 c #fff6d7",
"gi c #827557",
"#0 c #ddc695",
"gp c #e3cb9a",
"#P c #e6cd9b",
"#W c #fff8d8",
"f4 c #827457",
"a. c #d3bd8e",
"f9 c #f5dba5",
"af c #fff6d7",
"dz c #7f7255",
"dm c #7f7256",
".g c #ffecc2",
".h c #ffedc4",
"hG c #807356",
"hH c #827558",
"dL c #ffedc5",
"dy c #ffeec7",
"fH c #837659",
"az c #c3ae83",
"fM c #ffefb6",
"aE c #fffad8",
"fd c #847758",
"bh c #ab9873",
"fg c #fff2c0",
"bw c #fffad6",
"#e c #000000",
"ch c #000101",
"dv c #010100",
"ct c #010101",
"do c #020201",
"eD c #020301",
"cm c #040302",
"cg c #040303",
"gT c #050403",
"aV c #050503",
"#d c #060403",
"#f c #060404",
"aW c #070605",
"ew c #090705",
"fu c #090805",
"ab c #090806",
"aT c #0a0906",
"bo c #0a0907",
"ak c #0a0908",
"ac c #0a0a08",
"gF c #0b0907",
"gv c #0b0a07",
"bI c #0c0a07",
"fS c #0c0b08",
"bj c #0d0b08",
"c6 c #0d0b09",
"cJ c #0d0c08",
"aS c #0e0b08",
"gG c #100e0a",
"#u c #100e0b",
"#v c #100f0c",
"aY c #110f0c",
"b. c #120f0c",
"dr c #12100c",
"bu c #12110e",
"#G c #13110d",
"bH c #14110d",
"as c #14120d",
"#H c #14120f",
"#3 c #15120e",
"fJ c #17150f",
"b3 c #171510",
"#4 c #171512",
"gc c #18140f",
"at c #181612",
"dB c #191611",
"gl c #191711",
"cF c #1a1711",
"eK c #1c1812",
"gS c #1c1912",
"eE c #1d1913",
"bb c #1d1a13",
"dg c #1e1a14",
"a7 c #1f1c15",
"e4 c #201d16",
"dA c #201e15",
"dn c #221e16",
"bW c #221e17",
"g8 c #231f17",
"dO c #242017",
"gU c #252119",
"aB c #262219",
"b4 c #26221a",
"g7 c #272219",
"dh c #29241b",
"aU c #29251b",
"c5 c #29251c",
"g9 c #2a251b",
"gm c #2c271e",
"cl c #2c281e",
"d2 c #2d271d",
"cP c #2d281e",
"fK c #2e2a20",
"#c c #2e2a21",
"aC c #2e2a23",
"#g c #2e2b23",
"#S c #2f2a20",
"aX c #2f2b20",
"eX c #2f2b22",
"c# c #2f2b24",
"fl c #302a20",
"#T c #302c25",
"bt c #312b20",
"c0 c #322c21",
"bk c #332d21",
"gE c #332d22",
".U c #333026",
".V c #333027",
"dw c #343028",
"eW c #352f23",
"h. c #363024",
"eR c #373125",
"fB c #383124",
"gu c #383226",
"dW c #393327",
".T c #3a362b",
"dP c #3b3528",
".W c #3b362d",
"dT c #3c3629",
"dX c #3c372d",
"ef c #3d3628",
"cT c #3d372a",
"cE c #3f382a",
"g6 c #40392a",
"e3 c #413a2b",
"bp c #413b2c",
"gR c #433c2d",
"cS c #453e2e",
"a6 c #463e2f",
"cO c #473f2f",
"f6 c #4b4432",
"h# c #4c4432",
"d# c #4c463a",
"gH c #4d4534",
".S c #4d4537",
"ea c #4d4638",
".X c #4d4639",
"ds c #4e4635",
"gb c #4f4735",
"ep c #544b38",
"bO c #554c39",
"aJ c #564d3a",
"bC c #574e3a",
"cn c #58503c",
"bB c #594f3b",
"d. c #59503c",
"c1 c #5a523d",
"e# c #5b513d",
"#t c #5b523f",
"#w c #5b5648",
"d3 c #5d533e",
"bc c #5d5749",
"gk c #5e543f",
"fm c #5e5542",
"fR c #5f5540",
"gV c #605540",
"ft c #605641",
"d6 c #605741",
"gD c #635842",
"cz c #665b45",
"fe c #675b45",
"gQ c #695e46",
"#F c #6b6049",
".R c #6b614e",
"d7 c #6b6249",
".Y c #6b6351",
"cV c #6b6352",
"aK c #6b6455",
"eC c #6c6149",
"fC c #6c624b",
"ek c #6c634f",
"#I c #6c6555",
"ha c #6d6149",
"g5 c #6f634b",
"e5 c #70654c",
"dS c #71654c",
"a9 c #71674d",
"c7 c #72684e",
"bJ c #73694e",
"e8 c #74684f",
"e7 c #74694f",
"e9 c #75694f",
"fI c #766a4f",
"e6 c #766b50",
"#b c #786e55",
"#h c #79715f",
"bP c #79725f",
"f. c #7b7058",
"bn c #7f7256",
"eQ c #7f7356",
"fk c #817457",
"dF c #817558",
"c. c #817559",
"fA c #827457",
"ej c #827557",
"gC c #827558",
"eB c #837557",
"f5 c #837558",
"bX c #83765a",
"g4 c #847659",
"dN c #857759",
"gj c #85775a",
"fY c #867859",
"aa c #86785a",
"fQ c #86795a",
"fs c #86795b",
"gP c #87785a",
"d1 c #87795a",
"dj c #87795c",
"de c #887a5c",
"cf c #897a5c",
"eo c #897b5c",
"ee c #8a7b5d",
"dG c #8a7d5e",
"hl c #8b7c5d",
"ho c #8d7d5e",
"hn c #8d7e5f",
"cG c #8d8061",
"f7 c #8e7e60",
"hm c #8e7f5f",
"dd c #8f7f5f",
"et c #8f8162",
"#2 c #908160",
"aR c #908161",
"bi c #918161",
"hb c #918262",
"hp c #918263",
"ad c #938a76",
"bG c #948866",
"cZ c #968765",
".Q c #968a6e",
".Z c #968d75",
"cK c #968d76",
"b# c #978b69",
"ex c #978c71",
"hq c #988866",
"ce c #988867",
"dq c #998b69",
"#5 c #99907a",
"fZ c #9a8a68",
"al c #9a917c",
"gW c #9c8a68",
"ar c #9d8c6a",
"cy c #9e8d6a",
"hr c #a1906c",
"eh c #a1936f",
"hu c #a4926f",
"di c #a69873",
"bV c #a79470",
"ev c #a79873",
"gn c #a89571",
"hs c #a89671",
"b5 c #a89974",
"ht c #aa9872",
"eq c #aa9c75",
"b2 c #ac9d77",
"df c #b0a179",
"bA c #b19e77",
"du c #b19f78",
"cs c #b1a17a",
"#R c #b29f78",
"dp c #b2a078",
"ci c #b2a27b",
"eH c #b4a27b",
"a5 c #b7a37b",
"hd c #b8a47b",
"au c #b9ae95",
"#U c #b9af95",
"#s c #baab82",
"fT c #bba880",
"aA c #bca87f",
"#x c #bcb297",
"aZ c #bcb298",
"aQ c #bda87f",
"hc c #bda97f",
"a8 c #bdad83",
"fv c #beae87",
"dU c #bfae82",
"ba c #bfb186",
"ck c #c1b085",
"aI c #c4af84",
"bq c #c5b488",
"gw c #c7b286",
"#a c #c7b68d",
"bv c #c7bc9f",
"ff c #c8b891",
"#i c #c8bc9e",
".P c #c9b992",
".0 c #c9bd9d",
"cu c #c9bda0",
"c4 c #cab88b",
"gX c #cbb489",
"eJ c #cbba8d",
"eL c #cbbb96",
"es c #ccba8d",
"eF c #cebf90",
"gJ c #cfb98b",
"cD c #d0bd8f",
"gI c #d1bb8d",
"dJ c #d2bd8f",
"dC c #d2be90",
"aq c #d3bd8e",
"eg c #d5c293",
"dt c #d8c595",
"eG c #d8c797",
"cI c #dac494",
"cA c #dac595",
"co c #dac897",
"aj c #ddc595",
"gx c #e1c997",
"a# c #e2ca98",
"d8 c #e2d09d",
"eS c #e3cd9b",
"#E c #e6ce9c",
"bK c #e6d39f",
"fL c #e6d3a2",
"dV c #e6d49f",
"dQ c #e6d4a0",
"#J c #e6dbbb",
"aD c #e6dcbc",
"eT c #e7d09d",
"d5 c #e8d39f",
"cR c #e9d4a1",
"#1 c #ebd29e",
"go c #ebd29f",
"eI c #ecd6a2",
"c8 c #edd9a4",
"bs c #eed8a3",
"dR c #efdba6",
".y c #efdeb5",
".z c #efdfb7",
"gd c #f0d6a2",
"dK c #f0e0b9",
"dx c #f0e1ba",
"bl c #f1dba6",
"eV c #f1dca6",
"cU c #f4dca6",
"cH c #f4e0aa",
".x c #f4e4b8",
".A c #f4e4bc",
"cQ c #f5dca6",
"dY c #f5e5bc",
"dk c #f5e6bf",
"eY c #f6e5b7",
"ca c #f6e9c6",
"#Q c #f7dca6",
"dH c #f7e1aa",
"dE c #f7e3ab",
".O c #f7e4b4",
".1 c #f7e9c4",
"f8 c #f8dea8",
"e. c #f8e2ab",
"d4 c #f9e3ac",
"bd c #f9f2cf",
"fn c #faeab8",
"bF c #fbe6ae",
"b6 c #fbe7ae",
"aL c #fbf4d2",
"bN c #fce5ad",
"## c #fce9b3",
"fD c #fcebb5",
"#j c #fcf1cd",
"ei c #fde6ad",
"c2 c #fde7ae",
"c9 c #fde7af",
"eb c #fdeec3",
"da c #fdf0c9",
"bD c #fee7ae",
"b1 c #fee8b0",
"bm c #fee9b0",
"bZ c #ffe2ab",
"b8 c #ffe2ac",
"eu c #ffe3ab",
"bM c #ffe3ac",
"cq c #ffe3ad",
"c3 c #ffe4ac",
"cj c #ffe4ad",
"#q c #ffe5ad",
"b0 c #ffe5ae",
"bE c #ffe6ae",
"cB c #ffe7af",
"b7 c #ffe7b0",
"dD c #ffe8af",
"#r c #ffe8b0",
"cr c #ffe9b0",
"dI c #ffe9b1",
"f0 c #ffeab0",
"bL c #ffeab1",
"cC c #ffeab2",
"b9 c #ffebb1",
"cp c #ffebb2",
"d9 c #ffecb2",
"bY c #ffecb3",
".w c #ffecbe",
"eU c #ffedb3",
".B c #ffefc5",
"br c #fff0b5",
"er c #fff1b6",
".t c #fff1c0",
".M c #fff2bb",
"eM c #fff2c3",
"#y c #fff3d0",
"#. c #fff4bb",
"fw c #fff5bf",
".N c #fff6c0",
".v c #fff6c5",
".E c #fff6cf",
"#6 c #fff6d5",
"f# c #fff7c4",
"cv c #fff7d1",
"ae c #fff7d5",
".u c #fff8c7",
"el c #fff8c9",
"#z c #fff8d6",
".C c #fff9cf",
".3 c #fffad5",
"ey c #fffbcb",
"cW c #fffbd2",
"#V c #fffcda",
".D c #fffdd4",
".2 c #fffdd6",
"bQ c #fffdd7",
"cL c #fffed7",
"#k c #fffeda",
"#K c #fffedb",
"a0 c #fffedc",
"av c #fffedd",
"QtQtQtQtQtQtQtQtQtQtQtQtQtQtQtQt.#.a.b.c.d.e.f.g.h.i.j.k.l.m.n.oQtQtQtQtQtQtQtQtQtQtQtQtQtQtQtQt",
"QtQtQtQtQtQtQtQtQtQtQtQtQtQt.p.q.r.s.t.u.v.w.x.y.z.A.B.C.D.E.F.G.H.IQtQtQtQtQtQtQtQtQtQtQtQtQtQt",
"QtQtQtQtQtQtQtQtQtQtQtQt.J.K.L.M.N.O.P.Q.R.S.T.U.V.W.X.Y.Z.0.1.2.3.4.5.6QtQtQtQtQtQtQtQtQtQtQtQt",
"QtQtQtQtQtQtQtQtQtQt.7.8.9#.###a#b#c#d#e#e#e#e#e#e#e#e#e#e#f#g#h#i#j#k#l#m#nQtQtQtQtQtQtQtQtQtQt",
"QtQtQtQtQtQtQtQtQt#o#p#q#r#s#t#u#e#e#e#e#e#e#e#e#e#e#e#e#e#e#e#e#v#w#x#y#z#A#BQtQtQtQtQtQtQtQtQt",
"QtQtQtQtQtQtQtQt#C#D#q#E#F#G#e#e#e#e#e#e#e#e#e#e#e#e#e#e#e#e#e#e#e#e#H#I#J#K#L#MQtQtQtQtQtQtQtQt",
"QtQtQtQtQtQt#N#O#P#Q#R#S#e#e#e#e#e#e#e#e#e#e#e#e#e#e#e#e#e#e#e#e#e#e#e#e#T#U#V#W#X#YQtQtQtQtQtQt",
"QtQtQtQtQtQt#Z#0#1#2#3#e#e#e#e#e#e#e#e#e#e#e#e#e#e#e#e#e#e#e#e#e#e#e#e#e#e#4#5#6#7#8QtQtQtQtQtQt",
"QtQtQtQtQt#9a.a#aaab#e#e#e#e#e#e#e#e#e#e#e#e#e#e#e#e#e#e#e#e#e#e#e#e#e#e#e#eacadaeafagQtQtQtQtQt",
"QtQtQtQtahaiajaaab#e#e#e#e#e#e#e#e#e#e#e#e#e#e#e#e#e#e#e#e#e#e#e#e#e#e#e#e#e#eakal#VamanQtQtQtQt",
"QtQtQtaoapaqaras#e#e#e#e#e#e#e#e#e#e#e#e#e#e#e#e#e#e#e#e#e#e#e#e#e#e#e#e#e#e#e#eatauavawaxQtQtQt",
"QtQtQtayazaAaB#e#e#e#e#e#e#e#e#e#e#e#e#e#e#e#e#e#e#e#e#e#e#e#e#e#e#e#e#e#e#e#e#e#eaCaDaEaFQtQtQt",
"QtQtaGaHaIaJ#e#e#e#e#e#e#e#e#e#e#e#e#e#e#e#e#e#e#e#e#e#e#e#e#e#e#e#e#e#e#e#e#e#e#e#eaKaLaMaNQtQt",
"QtaOaPaQaRaS#e#e#e#e#e#eaTaUaV#e#e#e#e#e#e#e#e#e#e#e#e#e#e#e#e#e#eaWaXab#e#e#e#e#e#eaYaZa0a1a2Qt",
"Qta3a4a5a6#e#e#e#e#e#e#ea7a8a9#e#e#e#e#e#e#e#e#e#e#e#e#e#e#e#e#eb.b#babb#e#e#e#e#e#e#ebcbdbebfQt",
"Qtbgbhbibj#e#e#e#e#e#e#ebkblbmbnbo#e#e#e#e#e#e#e#e#e#e#e#e#e#ebpbqbrbsbt#e#e#e#e#e#e#ebubvbwbxQt",
"bybzbAbB#e#e#e#e#e#e#e#ebCbDbEbFbGbH#e#e#e#e#e#e#e#e#e#e#ebIbJbKbLbMbNbO#e#e#e#e#e#e#e#ebPbQbRbS",
"bTbUbVbW#e#e#e#e#e#e#e#ebXbYbZb0b1b2b3#e#e#e#e#e#e#e#e#eb4b5b6b7b8bZb9c.#e#e#e#e#e#e#e#ec#cacbcc",
"cdcecfcg#e#e#e#e#e#e#echcibLbMbMcjbYckcl#e#e#e#e#e#ecmcncocpcjbMcqbMcrcsct#e#e#e#e#e#e#e#fcucvcw",
"cxcycz#e#e#e#e#e#e#e#ebjcAcBbZcjcjbMcCcDcE#e#e#e#ecFcGcH#rbZbMcjcjbZbEcIcJ#e#e#e#e#e#e#e#ecKcLcM",
"cNarcO#e#e#e#e#e#e#e#ecPcQcjbMcjcjbMbZbLcRcS#e#ecTckbLbEbMcjcjcjcjbMcjcUcP#e#e#e#e#e#e#e#ecVcWcX",
"cYcZc0#e#e#e#e#e#e#e#ec1c2bZcjcjcjbMc3bLc4c5c6c7c8bLc3bMcjcjcjcjcjcjbMc9d.#e#e#e#e#e#e#e#ed#dadb",
"dcddaB#e#e#e#e#e#e#e#edebLbMcjcjbMbMcrdfdgdhdic9bEbMcjcjcjcjcjcjcjcjbZcCdj#e#e#e#e#e#e#e#e.Wdkdl",
"dmcfdn#e#e#e#e#e#e#edodpbLcjbMbZ#qcpdqdrdsdtcp#qbMcjcjcjcjcjcjcjcjcjbMcpdudv#e#e#e#e#e#e#edwdxdy",
"dzaadA#e#e#e#e#e#e#edBdCdDcjbZcBdEdFdBdGdHdIbMbMcjcjcjcjcjcjcjcjcjcjbMcrdJb3#e#e#e#e#e#e#edwdKdL",
"dMdNdO#e#e#e#e#e#e#edPdQbEbMcBdRdSdTdUdI#qb8cjcjcjcjcjcjcjcjcjcjcjcjcjcBdVdW#e#e#e#e#e#e#edXdYdZ",
"d0d1d2#e#e#e#e#e#e#ed3d4#qdDd5d6d7d8d9bMbMcjcjcjcjcjcjcjcjcjcjcjcjcjcjbEe.e##e#e#e#e#e#e#eeaebec",
"edeeef#e#e#e#e#e#e#edNb9bLeg#FeheicBbMbMcjcjcjcjcjcjcjcjcjcjcjcjcjcjcjc3b9ej#e#e#e#e#e#e#eekelem",
"eneoep#e#e#e#e#e#eabeqeresetescCc3bMcjcjcjcjcjcjcjcjcjcjcjcjcjcjcjcjcjeubYevew#e#e#e#e#e#eexeyez",
"eAeBeCeD#e#e#e#e#eeEeFeGeHeIb9c3#q#q#q#q#q#q#q#q#q#q#q#q#q#q#q#q#q#q#qc3cpeJeK#e#e#e#e#e#deLeMeN",
"eOePeQcF#e#e#e#e#eeReSeTdId9crdIbLbLbLbLbLbLbLbLbLbLbLbLbLbLbLbLbLbLbL#reUeVeW#e#e#e#e#eeXeYeZe0",
"e1e2d1e3#e#e#e#e#ee4e5e6e7e8e7e7e7e7e7e7e7e7e7e7e7e7e7e7e7e7e7e7e7e7e7e8e9c7e4#e#e#e#e#ef.f#fafb",
"Qtfcfdfeab#e#e#e#e#e#e#e#e#e#e#e#e#e#e#e#e#e#e#e#e#e#e#e#e#e#e#e#e#e#e#e#e#e#e#e#e#e#edrfffgfhQt",
"Qtfifjfkfl#e#e#e#e#e#e#e#e#e#e#e#e#e#e#e#e#e#e#e#e#e#e#e#e#e#e#e#e#e#e#e#e#e#e#e#e#e#efmfnfofpQt",
"Qtfqfrfsftfu#e#e#e#e#e#e#e#e#e#e#e#e#e#e#e#e#e#e#e#e#e#e#e#e#e#e#e#e#e#e#e#e#e#e#e#edrfvfwfxQtQt",
"QtQtfyfzfAfB#e#e#e#e#e#e#e#e#e#e#e#e#e#e#e#e#e#e#e#e#e#e#e#e#e#e#e#e#e#e#e#e#e#e#e#efCfDfEfFQtQt",
"QtQtQtfGfHfIfJ#e#e#e#e#e#e#e#e#e#e#e#e#e#e#e#e#e#e#e#e#e#e#e#e#e#e#e#e#e#e#e#e#e#efKfLfMfNQtQtQt",
"QtQtQtfOfPfQfRfS#e#e#e#e#e#e#e#e#e#e#e#e#e#e#e#e#e#e#e#e#e#e#e#e#e#e#e#e#e#e#e#ecFfTerfUfVQtQtQt",
"QtQtQtQtfWfXfYdsaV#e#e#e#e#e#e#e#e#e#e#e#e#e#e#e#e#e#e#e#e#e#e#e#e#e#e#e#e#e#ebofZf0f1f2QtQtQtQt",
"QtQtQtQtQtf3f4f5f6aV#e#e#e#e#e#e#e#e#e#e#e#e#e#e#e#e#e#e#e#e#e#e#e#e#e#e#e#ebof7f8f9g.QtQtQtQtQt",
"QtQtQtQtQtQtg#gaf5gbfS#e#e#e#e#e#e#e#e#e#e#e#e#e#e#e#e#e#e#e#e#e#e#e#e#e#egcbigdgegfQtQtQtQtQtQt",
"QtQtQtQtQtQtggghgigjgkgl#e#e#e#e#e#e#e#e#e#e#e#e#e#e#e#e#e#e#e#e#e#e#e#egmgngogpgqgrQtQtQtQtQtQt",
"QtQtQtQtQtQtQtQtgsgtaafIgugv#e#e#e#e#e#e#e#e#e#e#e#e#e#e#e#e#e#e#e#edrgkgwgxgygzQtQtQtQtQtQtQtQt",
"QtQtQtQtQtQtQtQtQtgAgBejgCgDgEgF#e#e#e#e#e#e#e#e#e#e#e#e#e#e#e#egGgHargIgJgKgLQtQtQtQtQtQtQtQtQt",
"QtQtQtQtQtQtQtQtQtQtgMgNgOgPejgQgRgScg#e#e#e#e#e#e#e#e#e#egTgUgVgWaIgXgYgZg0QtQtQtQtQtQtQtQtQtQt",
"QtQtQtQtQtQtQtQtQtQtQtQtg1g2g3g4deeBg5bCg6#Sg7g8dOg9h.h#hahbbAhchdhehfhgQtQtQtQtQtQtQtQtQtQtQtQt",
"QtQtQtQtQtQtQtQtQtQtQtQtQtQthhhihjhkf5hlhmhnhohmhphqhrhshthuhvhwhxhyQtQtQtQtQtQtQtQtQtQtQtQtQtQt",
"QtQtQtQtQtQtQtQtQtQtQtQtQtQtQtQthzhAhBhChDhEhFhGhHhIhJhKhLhMhNhOQtQtQtQtQtQtQtQtQtQtQtQtQtQtQtQt"};
